<svg width="509" height="338" viewBox="0 0 509 338" fill="none" xmlns="http://www.w3.org/2000/svg">
<g clip-path="url(#clip0_15_115)">
<path d="M326.422 194.522C308.978 163.861 275.704 140.319 240.481 142.587C266.463 170.818 281.613 207.323 283.252 245.642C283.83 260.422 282.933 276.921 292.755 287.988C298.866 294.875 308.206 298.21 317.39 298.91C326.575 299.609 335.757 297.951 344.819 296.3L347.017 296.974C347.854 261.715 343.865 225.183 326.422 194.522Z" fill="#F0F0F0"/>
<path d="M240.429 143.325C266.476 155.854 288.686 176.779 302.32 202.299C305.267 207.816 307.777 213.669 308.871 219.858C309.967 226.05 309.202 231.943 307.085 237.824C305.15 243.2 302.548 248.475 301.955 254.228C301.33 260.291 303.562 265.96 307.581 270.46C312.499 275.965 319.102 279.377 325.676 282.488C332.976 285.943 340.612 289.417 345.782 295.865C346.408 296.646 347.585 295.63 346.959 294.849C337.965 283.63 322.568 281.521 311.891 272.484C306.909 268.266 303.169 262.524 303.405 255.795C303.612 249.91 306.29 244.468 308.296 239.042C310.403 233.344 311.453 227.615 310.698 221.54C309.925 215.326 307.639 209.362 304.846 203.794C298.546 191.236 289.924 179.706 280.047 169.74C268.696 158.284 255.467 148.852 240.932 141.854C240.033 141.421 239.535 142.895 240.429 143.325Z" fill="white"/>
<path d="M298.326 193.77C302.319 190.853 305.144 186.612 306.297 181.805C307.45 176.999 306.855 171.939 304.619 167.53C304.163 166.639 302.757 167.305 303.213 168.197C305.303 172.298 305.856 177.011 304.774 181.485C303.691 185.959 301.044 189.899 297.309 192.593C296.498 193.18 297.52 194.353 298.326 193.77Z" fill="white"/>
<path d="M308.426 235.227C298.42 233.766 289.333 228.591 282.976 220.733C282.347 219.954 281.17 220.97 281.799 221.749C288.429 229.914 297.896 235.28 308.312 236.778C309.305 236.92 309.413 235.369 308.426 235.227V235.227Z" fill="white"/>
<path d="M267.927 160.196C266.617 161.647 264.968 162.75 263.126 163.406C261.285 164.062 259.309 164.251 257.376 163.955C256.386 163.8 256.278 165.352 257.262 165.505C259.399 165.822 261.581 165.611 263.617 164.89C265.653 164.17 267.482 162.963 268.944 161.373C269.094 161.235 269.186 161.045 269.201 160.841C269.216 160.637 269.153 160.436 269.024 160.277C268.889 160.122 268.698 160.026 268.492 160.011C268.287 159.996 268.084 160.063 267.927 160.196Z" fill="white"/>
<path d="M170.398 239.31C171.013 239.425 171.629 239.539 172.251 239.665C180.521 241.241 188.65 243.486 196.557 246.378C197.172 246.592 197.792 246.818 198.399 247.049C217.374 254.219 234.852 264.847 249.944 278.393C255.945 283.788 261.526 289.632 266.639 295.874C273.7 304.494 280.67 314.402 289.897 320.023C290.853 320.62 291.846 321.158 292.868 321.632L346.023 299.602C346.119 299.491 346.22 299.392 346.316 299.281L348.479 298.499C348.238 298.158 347.98 297.81 347.739 297.47C347.6 297.272 347.449 297.079 347.31 296.881C347.213 296.751 347.116 296.62 347.037 296.497C347.005 296.454 346.972 296.41 346.945 296.379C346.866 296.256 346.779 296.15 346.704 296.039C345.27 294.091 343.82 292.149 342.354 290.215C342.348 290.203 342.348 290.203 342.332 290.195C331.121 275.483 318.583 261.577 304.331 250.014C303.902 249.667 303.469 249.306 303.015 248.969C296.562 243.792 289.697 239.152 282.487 235.093C278.532 232.884 274.468 230.875 270.309 229.076C259.556 224.449 248.142 221.54 236.484 220.456C213.244 218.3 189.573 223.594 171.748 238.183C171.293 238.556 170.848 238.925 170.398 239.31Z" fill="#F0F0F0"/>
<path d="M170.797 239.935C199.144 234.269 229.485 237.615 255.748 249.789C261.426 252.421 266.956 255.585 271.559 259.868C276.165 264.152 279.105 269.319 280.959 275.287C282.653 280.744 283.754 286.521 286.746 291.471C289.9 296.688 295.099 299.872 301.019 301.047C308.262 302.484 315.591 301.235 322.715 299.765C330.624 298.132 338.814 296.311 346.828 298.35C347.799 298.597 348.125 297.077 347.156 296.831C333.214 293.284 319.65 300.862 305.68 300.07C299.161 299.7 292.714 297.364 288.848 291.85C285.467 287.027 284.327 281.07 282.659 275.531C280.908 269.714 278.295 264.508 274.031 260.112C269.67 255.615 264.251 252.229 258.666 249.463C246.069 243.226 232.238 239.208 218.346 237.192C202.38 234.874 186.135 235.302 170.313 238.458C169.334 238.653 169.824 240.13 170.797 239.935V239.935Z" fill="white"/>
<path d="M247.42 245.382C248.851 240.651 248.551 235.565 246.575 231.034C244.599 226.502 241.076 222.82 236.634 220.645C235.734 220.208 235.012 221.585 235.913 222.023C240.053 224.041 243.335 227.471 245.166 231.694C246.998 235.918 247.258 240.656 245.9 245.054C245.606 246.01 247.128 246.333 247.42 245.382Z" fill="white"/>
<path d="M280.464 272.407C271.595 277.26 261.221 278.595 251.411 276.145C250.439 275.901 250.112 277.421 251.082 277.664C261.296 280.195 272.089 278.784 281.307 273.714C282.185 273.23 281.338 271.926 280.464 272.407Z" fill="white"/>
<path d="M202.919 236.863C202.747 238.809 202.095 240.682 201.02 242.314C199.944 243.946 198.481 245.285 196.759 246.212C195.875 246.684 196.724 247.987 197.603 247.518C199.499 246.485 201.114 245.004 202.306 243.204C203.498 241.404 204.23 239.34 204.44 237.191C204.476 236.99 204.435 236.783 204.324 236.612C204.214 236.44 204.042 236.317 203.843 236.268C203.642 236.225 203.432 236.264 203.259 236.376C203.085 236.487 202.963 236.662 202.919 236.863Z" fill="white"/>
<path d="M271.654 275.657C279.099 239.691 288.404 227.7 288.404 227.7L291.959 224.945L296.234 221.627L296.213 221.201L297.227 220.856L297.465 220.671L297.856 220.372L297.918 220.439L298.051 220.576L317.396 214.006L341.938 205.676L353.303 190.916C355.154 188.512 357.536 186.569 360.265 185.24C362.993 183.91 365.992 183.23 369.027 183.252L405.322 183.52C410.23 183.557 414.946 185.426 418.544 188.761L442.4 210.872L479.573 228.611L479.635 228.548L480.026 228.827L485.769 231.571L485.532 232.804L489.087 235.367C489.087 235.367 498.392 246.525 505.837 279.99C507.73 288.505 508.663 306.772 508.999 329.281C509.016 330.42 508.806 331.55 508.382 332.607C507.958 333.664 507.327 334.626 506.527 335.437C505.728 336.249 504.774 336.893 503.723 337.333C502.672 337.773 501.544 338 500.404 338H301.859V338H277.078C275.939 337.999 274.812 337.773 273.761 337.333C272.711 336.894 271.758 336.25 270.958 335.44C270.159 334.63 269.528 333.669 269.103 332.613C268.678 331.557 268.467 330.428 268.483 329.29C268.812 304.797 269.743 284.891 271.654 275.657Z" fill="#3F3D56"/>
<path d="M246.18 31.3651C253.905 31.3651 261.313 34.4313 266.775 39.8891C272.237 45.3469 275.306 52.7492 275.306 60.4677C275.306 68.1862 272.237 75.5886 266.775 81.0464C261.313 86.5042 253.905 89.5704 246.18 89.5704H29.1255C21.401 89.5704 13.9928 86.5042 8.5307 81.0464C3.0686 75.5886 3.05176e-05 68.1862 3.05176e-05 60.4677C3.05176e-05 52.7492 3.0686 45.3469 8.5307 39.8891C13.9928 34.4313 21.401 31.3651 29.1255 31.3651H246.18Z" fill="#E5E5E5"/>
<path d="M246.18 37.2549C252.341 37.2549 258.25 39.7005 262.607 44.0538C266.964 48.407 269.411 54.3113 269.411 60.4677C269.411 66.6241 266.964 72.5284 262.607 76.8816C258.25 81.2349 252.341 83.6805 246.18 83.6805H29.1255C22.9643 83.6805 17.0554 81.2349 12.6987 76.8816C8.34204 72.5284 5.89444 66.6241 5.89444 60.4677C5.89444 54.3113 8.34204 48.407 12.6987 44.0538C17.0554 39.7005 22.9643 37.2549 29.1255 37.2549H246.18Z" fill="white"/>
<path d="M381.475 169.628C355.214 169.628 333.925 148.356 333.925 122.115C333.925 95.8746 355.214 74.6025 381.475 74.6025C407.736 74.6025 429.025 95.8746 429.025 122.115C429.025 148.356 407.736 169.628 381.475 169.628Z" fill="#FFB8B8"/>
<path d="M393.639 167.301C393.842 166.854 394.045 166.406 394.247 165.956C394.169 165.958 394.092 165.969 394.014 165.972L393.639 167.301Z" fill="#3F3D56"/>
<path d="M430.347 76.7631C427.942 74.8462 425.131 73.0823 422.057 73.1815C418.982 73.2805 415.864 76.0554 416.501 79.0628C410.853 69.0708 401.864 61.3858 391.11 57.3568C380.357 53.3277 368.527 53.212 357.697 57.0301C350.054 59.7241 342.56 65.1139 340.805 73.019C340.354 75.0483 340.257 77.2733 338.989 78.9212C337.391 80.9988 334.332 81.4688 331.813 80.7379C331.788 80.7306 331.762 80.7232 331.737 80.7157C331.312 80.5705 330.852 80.5562 330.419 80.6747C329.985 80.7932 329.597 81.039 329.304 81.3803C329.012 81.7216 328.829 82.1428 328.779 82.5892C328.728 83.0357 328.813 83.487 329.023 83.8847L331.185 87.9142C328.459 88.5213 325.627 88.4611 322.93 87.7388C322.481 87.6214 322.008 87.6453 321.574 87.8074C321.14 87.9695 320.767 88.2618 320.506 88.6441C320.245 89.0265 320.108 89.4802 320.116 89.943C320.123 90.4058 320.273 90.8551 320.546 91.2292C327.676 101.011 339.588 107.327 351.744 107.253C360.383 107.2 369.112 104.225 377.52 106.21C380.773 106.978 383.812 108.464 386.415 110.559C389.019 112.654 391.119 115.304 392.564 118.316C394.008 121.328 394.759 124.625 394.762 127.965C394.764 131.304 394.019 134.603 392.58 137.617C395.163 134.794 400.156 135.462 402.798 138.23C405.44 140.998 406.124 145.129 405.858 148.945C405.451 154.782 403.163 160.281 400.75 165.634C420.977 164.997 440.109 150.82 446.549 131.644C453.015 112.387 446.238 89.4297 430.347 76.7631Z" fill="#3F3D56"/>
<path opacity="0.2" d="M462.199 264.798L448.862 337.304L440.86 338L462.199 264.798Z" fill="black"/>
<path opacity="0.2" d="M315.292 259.33L328.629 337.251L336.631 338L315.292 259.33Z" fill="black"/>
<path d="M433.154 54.8648C430.386 54.9918 428.28 52.9797 428.145 50.0807C428.008 47.1374 429.95 44.9076 432.762 44.7785C435.575 44.6494 437.636 46.6479 437.775 49.6387C437.912 52.5847 436.012 54.7336 433.154 54.8648ZM433.582 39.3819L431.381 39.4829C430.832 39.5057 430.295 39.3219 429.875 38.9676C429.455 38.6134 429.183 38.1146 429.113 37.5699L429.086 37.3508C428.38 32.8978 429.785 28.3102 433.263 23.7239C436.43 19.6268 438.231 16.5903 438.073 13.1871C437.891 9.25237 435.233 7.0724 430.783 7.20609C429.046 7.28578 428.57 7.10102 426.956 7.84451C426.604 8.00934 426.222 8.10157 425.833 8.11569C425.444 8.12981 425.056 8.06553 424.693 7.92668C424.341 7.79377 424.02 7.5914 423.748 7.33167C423.476 7.07193 423.259 6.76013 423.11 6.41487C422.823 5.74956 422.8 5.00042 423.044 4.31873C423.288 3.63705 423.783 3.07361 424.427 2.7422C427.18 1.38337 430.186 0.609811 433.254 0.470325C442.872 0.0288646 445.201 6.70322 445.448 12.0065C445.689 17.1937 443.109 20.9849 439.437 25.7748C436.375 29.7506 435.244 33.1115 435.656 37.013C435.682 37.3059 435.648 37.601 435.556 37.8805C435.465 38.1599 435.318 38.4181 435.124 38.6393C434.931 38.8606 434.694 39.0404 434.429 39.168C434.164 39.2956 433.876 39.3683 433.582 39.3819L433.582 39.3819Z" fill="#3183B5"/>
<path d="M198.236 74.3477H241.421C241.559 74.3486 241.695 74.3224 241.822 74.2706C241.949 74.2188 242.064 74.1424 242.161 74.0458C242.259 73.9492 242.336 73.8343 242.389 73.7077C242.441 73.5812 242.469 73.4454 242.469 73.3083C242.469 73.1712 242.441 73.0355 242.389 72.9089C242.336 72.7824 242.259 72.6675 242.161 72.5709C242.064 72.4742 241.949 72.3978 241.822 72.346C241.695 72.2942 241.559 72.268 241.421 72.2689H198.236C197.961 72.2708 197.698 72.3811 197.505 72.5758C197.311 72.7706 197.202 73.0339 197.202 73.3083C197.202 73.5828 197.311 73.8461 197.505 74.0408C197.698 74.2355 197.961 74.3458 198.236 74.3477Z" fill="#3183B5"/>
<path d="M143.452 74.6941H186.638C186.775 74.6951 186.911 74.6689 187.038 74.6171C187.165 74.5653 187.28 74.4888 187.378 74.3922C187.475 74.2956 187.552 74.1807 187.605 74.0542C187.658 73.9276 187.685 73.7919 187.685 73.6548C187.685 73.5177 187.658 73.3819 187.605 73.2554C187.552 73.1288 187.475 73.0139 187.378 72.9173C187.28 72.8207 187.165 72.7443 187.038 72.6925C186.911 72.6406 186.775 72.6144 186.638 72.6154H143.452C143.315 72.6144 143.179 72.6406 143.052 72.6925C142.925 72.7443 142.809 72.8207 142.712 72.9173C142.614 73.0139 142.537 73.1288 142.484 73.2554C142.432 73.3819 142.404 73.5177 142.404 73.6548C142.404 73.7919 142.432 73.9276 142.484 74.0542C142.537 74.1807 142.614 74.2956 142.712 74.3922C142.809 74.4888 142.925 74.5653 143.052 74.6171C143.179 74.6689 143.315 74.6951 143.452 74.6941Z" fill="#3183B5"/>
<path d="M88.668 75.0406H131.854C132.128 75.0387 132.391 74.9284 132.585 74.7337C132.778 74.5389 132.887 74.2756 132.887 74.0012C132.887 73.7267 132.778 73.4634 132.585 73.2687C132.391 73.074 132.128 72.9637 131.854 72.9618H88.6681C88.5309 72.9609 88.3949 72.9871 88.2678 73.0389C88.1408 73.0907 88.0253 73.1671 87.928 73.2637C87.8306 73.3603 87.7534 73.4752 87.7006 73.6018C87.6479 73.7284 87.6208 73.8641 87.6208 74.0012C87.6208 74.1383 87.6479 74.274 87.7006 74.4006C87.7534 74.5272 87.8306 74.6421 87.928 74.7387C88.0253 74.8353 88.1408 74.9117 88.2678 74.9635C88.3949 75.0153 88.5309 75.0415 88.6681 75.0406H88.668Z" fill="#3183B5"/>
<path d="M33.8843 75.3871H77.0701C77.3448 75.3852 77.6075 75.2749 77.8011 75.0802C77.9946 74.8855 78.1033 74.6222 78.1033 74.3477C78.1033 74.0733 77.9946 73.81 77.8011 73.6153C77.6075 73.4205 77.3448 73.3102 77.0701 73.3083H33.8843C33.6097 73.3102 33.3469 73.4205 33.1533 73.6153C32.9598 73.81 32.8512 74.0733 32.8512 74.3477C32.8512 74.6222 32.9598 74.8855 33.1533 75.0802C33.3469 75.2749 33.6097 75.3852 33.8843 75.3871Z" fill="#3183B5"/>
<path d="M219.923 64.7821C215.491 64.7821 211.897 61.1914 211.897 56.762C211.897 52.3327 215.491 48.7419 219.923 48.7419C224.356 48.7419 227.95 52.3327 227.95 56.762C227.95 61.1914 224.356 64.7821 219.923 64.7821Z" fill="#3183B5"/>
<path d="M164.809 64.7821C160.376 64.7821 156.782 61.1914 156.782 56.762C156.782 52.3327 160.376 48.7419 164.809 48.7419C169.242 48.7419 172.835 52.3327 172.835 56.762C172.835 61.1914 169.242 64.7821 164.809 64.7821Z" fill="#3183B5"/>
<path d="M109.694 64.7821C105.261 64.7821 101.668 61.1914 101.668 56.762C101.668 52.3327 105.261 48.7419 109.694 48.7419C114.127 48.7419 117.721 52.3327 117.721 56.762C117.721 61.1914 114.127 64.7821 109.694 64.7821Z" fill="#3183B5"/>
<path d="M54.5795 64.7821C50.1467 64.7821 46.5531 61.1914 46.5531 56.762C46.5531 52.3327 50.1467 48.7419 54.5795 48.7419C59.0124 48.7419 62.606 52.3327 62.606 56.762C62.606 61.1914 59.0124 64.7821 54.5795 64.7821Z" fill="#3183B5"/>
</g>
<defs>
<clipPath id="clip0_15_115">
<rect width="509" height="338" fill="white" transform="matrix(-1 0 0 1 509 0)"/>
</clipPath>
</defs>
</svg>
