<svg width="563" height="340" viewBox="0 0 563 340" fill="none" xmlns="http://www.w3.org/2000/svg">
<g clip-path="url(#clip0_10_18)" filter="url(#filter0_d_10_18)">
<g filter="url(#filter1_d_10_18)">
<path d="M428.921 328.246C421.816 322.238 417.5 312.748 418.631 303.509C419.763 294.271 426.774 285.778 435.867 283.816C444.961 281.854 455.327 287.285 458.089 296.173C459.609 279.037 461.361 261.183 470.466 246.59C478.711 233.377 492.99 223.922 508.467 222.231C523.943 220.54 540.237 226.928 549.889 239.15C559.541 251.372 561.904 269.14 555.144 283.172C550.165 293.509 540.99 301.202 531.377 307.461C500.315 327.514 463.06 335.668 426.467 330.424L428.921 328.246Z" fill="#F2F2F2"/>
</g>
<path d="M534.585 227.282C521.815 237.689 510.1 249.329 499.61 262.032C483.192 281.845 469.906 304.059 460.216 327.9C459.507 329.639 462.329 330.396 463.031 328.676C478.886 289.93 504.197 255.779 536.649 229.347C538.106 228.16 536.03 226.105 534.585 227.282Z" fill="white"/>
<g filter="url(#filter2_d_10_18)">
<path d="M182.663 326.613C192.423 318.362 198.351 305.328 196.796 292.638C195.242 279.949 185.613 268.284 173.123 265.589C160.633 262.894 146.395 270.354 142.602 282.561C140.514 259.025 138.108 234.503 125.602 214.46C114.278 196.311 94.6642 183.325 73.4077 181.002C52.1511 178.679 29.7706 187.453 16.5137 204.241C3.25675 221.028 0.0108423 245.432 9.29566 264.705C16.1355 278.903 28.7368 289.469 41.9398 298.065C84.0621 325.49 136.315 336.927 186.034 329.606" fill="#F2F2F2"/>
</g>
<path d="M37.5339 187.94C55.0732 202.234 71.1636 218.221 85.5725 235.669C99.9837 253.099 112.671 271.887 123.457 291.769C129.485 302.922 134.901 314.395 139.68 326.139C140.654 328.527 136.777 329.567 135.814 327.205C127.35 306.501 116.878 286.678 104.549 268.018C92.2802 249.426 78.2376 232.069 62.6188 216.19C53.7847 207.213 44.464 198.729 34.6989 190.776C32.6974 189.146 35.5488 186.323 37.5339 187.94L37.5339 187.94Z" fill="white"/>
<path d="M353.905 331.273H169.543V92.2331C169.492 72.7456 175.66 53.7507 187.147 38.0139C187.571 37.4363 187.993 36.8663 188.429 36.3025C193.985 29.0107 200.598 22.5889 208.048 17.2491C208.469 16.9428 208.891 16.6417 209.32 16.3406C215.554 12.0241 222.297 8.49549 229.397 5.835C229.819 5.67511 230.248 5.51491 230.677 5.36126C237.098 3.06856 243.754 1.49808 250.522 0.678802C250.942 0.621452 251.372 0.576574 251.803 0.531696C258.399 -0.173916 265.051 -0.173916 271.646 0.531696C272.076 0.576574 272.507 0.621446 272.931 0.679416C279.698 1.49875 286.352 3.06904 292.771 5.36129C293.201 5.51494 293.63 5.67513 294.053 5.83533C301.065 8.46226 307.729 11.9383 313.896 16.1857C314.325 16.4803 314.754 16.7813 315.176 17.0824C319.352 20.065 323.275 23.3877 326.904 27.0168C329.814 29.9277 332.526 33.0305 335.021 36.3044C335.455 36.8663 335.878 37.4364 336.3 38.013C347.788 53.75 353.956 72.7453 353.905 92.2331V331.273Z" fill="#CCCCCC"/>
<path d="M338.914 224.359C344.551 224.359 349.121 219.787 349.121 214.147C349.121 208.506 344.551 203.934 338.914 203.934C333.277 203.934 328.707 208.506 328.707 214.147C328.707 219.787 333.277 224.359 338.914 224.359Z" fill="#4D9ACC"/>
<path d="M383.313 324.114H375.492L371.771 293.93L383.315 293.931L383.313 324.114Z" fill="#FFB8B8"/>
<path d="M369.906 321.878H384.989V331.38H360.409C360.409 330.132 360.654 328.896 361.132 327.743C361.609 326.59 362.308 325.543 363.19 324.661C364.072 323.778 365.119 323.078 366.271 322.601C367.424 322.123 368.658 321.878 369.906 321.878Z" fill="#2F2E41"/>
<path d="M422.227 324.114H414.406L410.685 293.93L422.228 293.931L422.227 324.114Z" fill="#FFB8B8"/>
<path d="M408.819 321.878H423.902V331.38H399.323C399.323 330.132 399.568 328.896 400.045 327.743C400.523 326.59 401.222 325.543 402.104 324.661C402.986 323.778 404.033 323.078 405.185 322.601C406.337 322.123 407.572 321.878 408.819 321.878Z" fill="#2F2E41"/>
<path d="M344.08 216.17C343.517 215.341 343.143 214.398 342.984 213.408C342.825 212.418 342.884 211.406 343.159 210.442C343.433 209.477 343.915 208.585 344.572 207.828C345.228 207.07 346.042 206.466 346.957 206.057L373.543 132.739L386.625 139.882L356.27 209.948C356.854 211.531 356.837 213.274 356.223 214.846C355.608 216.418 354.439 217.71 352.937 218.477C351.434 219.243 349.702 219.432 348.07 219.007C346.438 218.582 345.018 217.573 344.08 216.17Z" fill="#FFB8B8"/>
<path d="M418.232 229.947C417.363 229.448 416.613 228.765 416.037 227.945C415.46 227.126 415.07 226.189 414.894 225.202C414.718 224.216 414.76 223.202 415.018 222.233C415.276 221.265 415.743 220.364 416.386 219.596L408.15 142.037L423.038 142.718L426.461 219.007C427.68 220.174 428.428 221.747 428.565 223.429C428.702 225.112 428.217 226.786 427.203 228.134C426.188 229.483 424.715 230.412 423.062 230.746C421.408 231.08 419.69 230.796 418.232 229.947Z" fill="#FFB8B8"/>
<path d="M394.481 119.159C403.135 119.159 410.15 112.14 410.15 103.481C410.15 94.8232 403.135 87.8043 394.481 87.8043C385.828 87.8043 378.813 94.8232 378.813 103.481C378.813 112.14 385.828 119.159 394.481 119.159Z" fill="#FFB8B8"/>
<path d="M418.132 212.308H370.895L370.952 211.94C371.037 211.39 379.371 156.767 373.224 138.896C372.607 137.14 372.662 135.218 373.376 133.499C374.091 131.781 375.416 130.388 377.096 129.588H377.096C385.881 125.448 402.746 120.351 416.979 132.721C419.074 134.572 420.71 136.884 421.757 139.476C422.804 142.068 423.235 144.868 423.014 147.655L418.132 212.308Z" fill="#4D9ACC"/>
<path d="M379.967 164.839L358.701 160.522L368.669 136.886C369.266 134.597 370.746 132.638 372.784 131.439C374.822 130.24 377.252 129.898 379.542 130.49C381.831 131.081 383.793 132.557 384.996 134.593C386.199 136.63 386.546 139.061 385.961 141.353L379.967 164.839Z" fill="#4D9ACC"/>
<path d="M407.205 172.855L405.926 143.53C404.957 138.018 408.11 132.807 412.961 131.955C417.813 131.107 422.55 134.93 423.524 140.483L428.329 167.883L407.205 172.855Z" fill="#4D9ACC"/>
<path d="M416.56 208.797C424.161 237.761 424.99 274.585 422.94 314.753L412.733 313.477L394.233 236.882L384.026 314.753L372.543 314.115C369.113 271.969 365.772 235.787 371.267 211.988L416.56 208.797Z" fill="#2F2E41"/>
<path d="M404.805 115.597C401.882 118.712 396.454 117.04 396.073 112.784C396.043 112.454 396.045 112.121 396.079 111.791C396.276 109.906 397.365 108.194 397.104 106.204C397.045 105.708 396.86 105.236 396.568 104.832C394.239 101.711 388.771 106.228 386.573 103.403C385.225 101.67 386.809 98.943 385.775 97.0068C384.41 94.4513 380.366 95.7119 377.83 94.3124C375.009 92.7553 375.177 88.4241 377.035 85.7896C379.3 82.5767 383.271 80.8623 387.193 80.6152C391.114 80.3681 395.009 81.4288 398.671 82.8565C402.831 84.4786 406.956 86.7204 409.516 90.3804C412.629 94.8313 412.929 100.815 411.372 106.02C410.425 109.186 407.192 113.053 404.805 115.597Z" fill="#2F2E41"/>
<path d="M539.85 331.684H68.8697C68.6686 331.683 68.476 331.603 68.334 331.461C68.192 331.318 68.1123 331.125 68.1123 330.924C68.1123 330.723 68.192 330.53 68.334 330.387C68.476 330.245 68.6686 330.165 68.8697 330.164H539.85C540.051 330.165 540.244 330.245 540.386 330.387C540.528 330.53 540.608 330.723 540.608 330.924C540.608 331.125 540.528 331.318 540.386 331.461C540.244 331.603 540.051 331.683 539.85 331.684Z" fill="#3F3D56"/>
<path d="M303.19 262.019H220.259C219.166 262.025 218.117 261.597 217.339 260.829C216.562 260.061 216.121 259.017 216.112 257.924V72.7111C216.121 71.6184 216.562 70.5735 217.339 69.8059C218.117 69.0382 219.166 68.6104 220.259 68.6163H303.19C304.282 68.6104 305.332 69.0382 306.109 69.8059C306.886 70.5735 307.328 71.6184 307.336 72.7111V257.924C307.328 259.017 306.886 260.061 306.109 260.829C305.332 261.597 304.282 262.025 303.19 262.019Z" fill="white"/>
<path d="M307.336 128.545H216.112V129.822H307.336V128.545Z" fill="#CCCCCC"/>
<path d="M307.655 201.381H216.431V202.658H307.655V201.381Z" fill="#CCCCCC"/>
<path d="M246.095 68.6163H244.819V262.657H246.095V68.6163Z" fill="#CCCCCC"/>
<path d="M277.991 68.6163H276.715V262.657H277.991V68.6163Z" fill="#CCCCCC"/>
</g>
<defs>
<filter id="filter0_d_10_18" x="0" y="0" width="563" height="340" filterUnits="userSpaceOnUse" color-interpolation-filters="sRGB">
<feFlood flood-opacity="0" result="BackgroundImageFix"/>
<feColorMatrix in="SourceAlpha" type="matrix" values="0 0 0 0 0 0 0 0 0 0 0 0 0 0 0 0 0 0 127 0" result="hardAlpha"/>
<feOffset dy="4"/>
<feGaussianBlur stdDeviation="2"/>
<feComposite in2="hardAlpha" operator="out"/>
<feColorMatrix type="matrix" values="0 0 0 0 0 0 0 0 0 0 0 0 0 0 0 0 0 0 0.25 0"/>
<feBlend mode="normal" in2="BackgroundImageFix" result="effect1_dropShadow_10_18"/>
<feBlend mode="normal" in="SourceGraphic" in2="effect1_dropShadow_10_18" result="shape"/>
</filter>
<filter id="filter1_d_10_18" x="414.452" y="221.963" width="148.548" height="118.012" filterUnits="userSpaceOnUse" color-interpolation-filters="sRGB">
<feFlood flood-opacity="0" result="BackgroundImageFix"/>
<feColorMatrix in="SourceAlpha" type="matrix" values="0 0 0 0 0 0 0 0 0 0 0 0 0 0 0 0 0 0 127 0" result="hardAlpha"/>
<feOffset dy="4"/>
<feGaussianBlur stdDeviation="2"/>
<feComposite in2="hardAlpha" operator="out"/>
<feColorMatrix type="matrix" values="0 0 0 0 0 0 0 0 0 0 0 0 0 0 0 0 0 0 0.35 0"/>
<feBlend mode="normal" in2="BackgroundImageFix" result="effect1_dropShadow_10_18"/>
<feBlend mode="normal" in="SourceGraphic" in2="effect1_dropShadow_10_18" result="shape"/>
</filter>
<filter id="filter2_d_10_18" x="0" y="180.634" width="201.043" height="159.136" filterUnits="userSpaceOnUse" color-interpolation-filters="sRGB">
<feFlood flood-opacity="0" result="BackgroundImageFix"/>
<feColorMatrix in="SourceAlpha" type="matrix" values="0 0 0 0 0 0 0 0 0 0 0 0 0 0 0 0 0 0 127 0" result="hardAlpha"/>
<feOffset dy="4"/>
<feGaussianBlur stdDeviation="2"/>
<feComposite in2="hardAlpha" operator="out"/>
<feColorMatrix type="matrix" values="0 0 0 0 0 0 0 0 0 0 0 0 0 0 0 0 0 0 0.35 0"/>
<feBlend mode="normal" in2="BackgroundImageFix" result="effect1_dropShadow_10_18"/>
<feBlend mode="normal" in="SourceGraphic" in2="effect1_dropShadow_10_18" result="shape"/>
</filter>
<clipPath id="clip0_10_18">
<rect width="555" height="332" fill="white" transform="translate(4)"/>
</clipPath>
</defs>
</svg>
